<?xml version="1.0" encoding="utf-8"?>
<!-- Generator: Adobe Illustrator 16.0.0, SVG Export Plug-In . SVG Version: 6.00 Build 0)  -->
<!DOCTYPE svg PUBLIC "-//W3C//DTD SVG 1.1//EN" "http://www.w3.org/Graphics/SVG/1.1/DTD/svg11.dtd">
<svg version="1.1" id="Simbol_1_" xmlns="http://www.w3.org/2000/svg" xmlns:xlink="http://www.w3.org/1999/xlink" x="0px" y="0px"
	 width="3213px" height="398px" viewBox="0 0 3213 398" enable-background="new 0 0 3213 398" xml:space="preserve">
<g id="DANIEL_SILVA">
	<g enable-background="new    ">
		<path d="M758.866,324.311V69.838h78.125c33.322,0,60.063,10.224,80.222,30.673c20.156,20.448,30.236,46.87,30.236,79.261v34.78
			c0,32.508-10.08,58.929-30.236,79.261c-20.159,20.334-46.9,30.498-80.222,30.498H758.866z M793.296,96.928v200.293h43.694
			c23.535,0,42.091-7.739,55.666-23.224c13.573-15.484,20.361-35.332,20.361-59.549v-35.098c0-23.982-6.789-43.713-20.361-59.197
			c-13.575-15.483-32.131-23.226-55.666-23.226H793.296z"/>
		<path d="M1144.615,258.77h-106.613l-24.119,65.541h-35.13l98.399-254.473h29.535l96.826,254.473h-35.129L1144.615,258.77z
			 M1048.662,229.932h85.641l-41.945-115.876h-1.049L1048.662,229.932z"/>
		<path d="M1446.646,324.311h-34.432l-122.517-196.797l-1.049,0.35v196.447h-34.431V69.838h34.431l122.518,196.447l1.048-0.35
			V69.838h34.432V324.311z"/>
		<path d="M1561.668,324.311h-34.605V69.838h34.605V324.311z"/>
		<path d="M1793.266,206.337H1676.69v90.884h134.402v27.09H1642.26V69.838h166.91v27.09H1676.69v82.319h116.575V206.337z"/>
		<path d="M1901.646,297.221h120.42v27.09h-154.851V69.838h34.431V297.221z"/>
	</g>
	<g enable-background="new    ">
		<path d="M2339.674,261.82c0-13.84-5.187-25.154-15.556-33.937c-10.372-8.782-28.431-16.547-54.181-23.294
			c-27.85-6.991-48.938-16.08-63.269-27.266s-21.497-26.273-21.497-45.267c0-19.457,8.01-35.305,24.031-47.539
			c16.02-12.234,36.615-18.352,61.783-18.352c26.217,0,47.364,7.283,63.443,21.848c16.08,14.566,23.885,32.333,23.42,53.306
			l-0.524,1.049H2338.1c0-17.011-6.029-30.992-18.089-41.946c-12.06-10.95-28.401-16.429-49.024-16.429
			c-20.391,0-36.326,4.544-47.801,13.633c-11.479,9.088-17.216,20.392-17.216,33.906c0,12.818,5.301,23.508,15.905,32.071
			c10.601,8.564,28.895,16.109,54.879,22.634c27.38,6.99,48.208,16.429,62.482,28.313c14.271,11.885,21.41,27.557,21.41,47.015
			c0,20.273-8.303,36.413-24.906,48.412c-16.604,12.003-37.781,18.002-63.53,18.002c-25.403,0-47.569-6.379-66.502-19.138
			c-18.937-12.759-28.112-31.372-27.527-55.841l0.35-1.049h19.226c0,19.75,7.397,34.388,22.196,43.913
			c14.796,9.524,32.216,14.287,52.258,14.287c20.156,0,36.44-4.418,48.85-13.261C2333.469,288.053,2339.674,276.362,2339.674,261.82
			z"/>
		<path d="M2450.5,324.311h-20.973V69.838h20.973V324.311z"/>
		<path d="M2558.531,306.483h125.838v17.827h-146.812V69.838h20.974V306.483z"/>
		<path d="M2782.787,281.315l5.068,16.953h1.049l5.068-16.953l76.377-211.478h22.721l-94.903,254.473h-19.749l-94.903-254.473
			h22.721L2782.787,281.315z"/>
		<path d="M3071.361,253.352h-116.575l-26.217,70.959h-21.672l96.65-254.473h19.75l95.952,254.473h-21.673L3071.361,253.352z
			 M2961.777,234.65h102.768L3013.86,96.928h-1.049L2961.777,234.65z"/>
	</g>
</g>
<g id="MD">
	<g enable-background="new    ">
		<path fill="#F55547" d="M277.765,69.838l64.842,187.533h1.048l65.366-187.533h66.764v254.473h-51.034v-75.853l4.894-112.381
			l-1.049-0.175l-68.162,188.408h-34.256l-67.813-187.709l-1.049,0.175l4.894,111.682v75.853h-51.034V69.838H277.765z"/>
		<path fill="#F55547" d="M426.855,324.311V69.838h87.388c31.11,0,56.742,9.935,76.901,29.799
			c20.156,19.867,30.236,45.354,30.236,76.464v42.121c0,31.228-10.08,56.715-30.236,76.465
			c-20.159,19.749-45.791,29.624-76.901,29.624H426.855z M477.889,109.162v175.824h33.731c18.292,0,32.623-6.169,42.995-18.507
			c10.369-12.339,15.555-28.462,15.555-48.367v-42.427c0-19.67-5.186-35.676-15.555-48.014
			c-10.372-12.338-24.703-18.51-42.995-18.51H477.889z"/>
	</g>
</g>
<g id="DEV">
	<g enable-background="new    ">
		<path d="M191.993,324.095H79.431v-34.529c0-14.728,4.522-26.547,13.567-35.457c9.045-8.909,20.732-13.364,35.06-13.364h15.385
			c14.379,0,26.066,4.455,35.06,13.364c8.995,8.91,13.491,20.729,13.491,35.457V324.095z M91.414,308.877h88.597v-19.312
			c0-10.402-3.423-18.604-10.272-24.604c-6.849-5.999-15.629-8.999-26.341-8.999h-15.525c-10.608,0-19.336,3-26.185,8.999
			c-6.849,6-10.273,14.201-10.273,24.604V308.877z"/>
		<path d="M139.809,164.062v51.524h40.201v-59.403h11.983v74.621H79.431v-73.771h11.983v58.554h36.413v-51.524H139.809z"/>
		<path d="M164.007,115.883l8.89-2.549v-0.463l-8.89-2.549L79.431,81.276V64.822l112.563,41.791v13.055L79.431,161.459v-16.531
			L164.007,115.883z"/>
	</g>
</g>
</svg>
